<svg xmlns="http://www.w3.org/2000/svg" width="432" height="432"><rect x="0" y="0" width="100%" height="100%" fill="rgb(153,95,54)"></rect><circle cx="36" cy="36" r="30" fill="none" stroke="#222" opacity="0.15" stroke-width="12px"></circle><circle cx="36" cy="36" r="15" fill="#ddd" fill-opacity="0.12400000000000001"></circle><circle cx="108" cy="36" r="30" fill="none" stroke="#ddd" opacity="0.08933333333333333" stroke-width="12px"></circle><circle cx="108" cy="36" r="15" fill="#ddd" fill-opacity="0.05466666666666667"></circle><circle cx="180" cy="36" r="30" fill="none" stroke="#222" opacity="0.028666666666666667" stroke-width="12px"></circle><circle cx="180" cy="36" r="15" fill="#ddd" fill-opacity="0.12400000000000001"></circle><circle cx="252" cy="36" r="30" fill="none" stroke="#ddd" opacity="0.02" stroke-width="12px"></circle><circle cx="252" cy="36" r="15" fill="#ddd" fill-opacity="0.07200000000000001"></circle><circle cx="324" cy="36" r="30" fill="none" stroke="#ddd" opacity="0.10666666666666667" stroke-width="12px"></circle><circle cx="324" cy="36" r="15" fill="#ddd" fill-opacity="0.07200000000000001"></circle><circle cx="396" cy="36" r="30" fill="none" stroke="#ddd" opacity="0.05466666666666667" stroke-width="12px"></circle><circle cx="396" cy="36" r="15" fill="#ddd" fill-opacity="0.10666666666666667"></circle><circle cx="36" cy="108" r="30" fill="none" stroke="#222" opacity="0.06333333333333334" stroke-width="12px"></circle><circle cx="36" cy="108" r="15" fill="#ddd" fill-opacity="0.14133333333333334"></circle><circle cx="108" cy="108" r="30" fill="none" stroke="#ddd" opacity="0.08933333333333333" stroke-width="12px"></circle><circle cx="108" cy="108" r="15" fill="#222" fill-opacity="0.046"></circle><circle cx="180" cy="108" r="30" fill="none" stroke="#ddd" opacity="0.10666666666666667" stroke-width="12px"></circle><circle cx="180" cy="108" r="15" fill="#ddd" fill-opacity="0.12400000000000001"></circle><circle cx="252" cy="108" r="30" fill="none" stroke="#222" opacity="0.15" stroke-width="12px"></circle><circle cx="252" cy="108" r="15" fill="#222" fill-opacity="0.11533333333333334"></circle><circle cx="324" cy="108" r="30" fill="none" stroke="#ddd" opacity="0.08933333333333333" stroke-width="12px"></circle><circle cx="324" cy="108" r="15" fill="#ddd" fill-opacity="0.03733333333333333"></circle><circle cx="396" cy="108" r="30" fill="none" stroke="#ddd" opacity="0.03733333333333333" stroke-width="12px"></circle><circle cx="396" cy="108" r="15" fill="#222" fill-opacity="0.098"></circle><circle cx="36" cy="180" r="30" fill="none" stroke="#ddd" opacity="0.10666666666666667" stroke-width="12px"></circle><circle cx="36" cy="180" r="15" fill="#222" fill-opacity="0.11533333333333334"></circle><circle cx="108" cy="180" r="30" fill="none" stroke="#222" opacity="0.15" stroke-width="12px"></circle><circle cx="108" cy="180" r="15" fill="#ddd" fill-opacity="0.12400000000000001"></circle><circle cx="180" cy="180" r="30" fill="none" stroke="#ddd" opacity="0.14133333333333334" stroke-width="12px"></circle><circle cx="180" cy="180" r="15" fill="#ddd" fill-opacity="0.10666666666666667"></circle><circle cx="252" cy="180" r="30" fill="none" stroke="#ddd" opacity="0.14133333333333334" stroke-width="12px"></circle><circle cx="252" cy="180" r="15" fill="#ddd" fill-opacity="0.08933333333333333"></circle><circle cx="324" cy="180" r="30" fill="none" stroke="#222" opacity="0.13266666666666665" stroke-width="12px"></circle><circle cx="324" cy="180" r="15" fill="#ddd" fill-opacity="0.03733333333333333"></circle><circle cx="396" cy="180" r="30" fill="none" stroke="#ddd" opacity="0.07200000000000001" stroke-width="12px"></circle><circle cx="396" cy="180" r="15" fill="#ddd" fill-opacity="0.05466666666666667"></circle><circle cx="36" cy="252" r="30" fill="none" stroke="#ddd" opacity="0.12400000000000001" stroke-width="12px"></circle><circle cx="36" cy="252" r="15" fill="#222" fill-opacity="0.06333333333333334"></circle><circle cx="108" cy="252" r="30" fill="none" stroke="#ddd" opacity="0.10666666666666667" stroke-width="12px"></circle><circle cx="108" cy="252" r="15" fill="#ddd" fill-opacity="0.10666666666666667"></circle><circle cx="180" cy="252" r="30" fill="none" stroke="#ddd" opacity="0.10666666666666667" stroke-width="12px"></circle><circle cx="180" cy="252" r="15" fill="#ddd" fill-opacity="0.10666666666666667"></circle><circle cx="252" cy="252" r="30" fill="none" stroke="#222" opacity="0.06333333333333334" stroke-width="12px"></circle><circle cx="252" cy="252" r="15" fill="#ddd" fill-opacity="0.12400000000000001"></circle><circle cx="324" cy="252" r="30" fill="none" stroke="#ddd" opacity="0.05466666666666667" stroke-width="12px"></circle><circle cx="324" cy="252" r="15" fill="#ddd" fill-opacity="0.07200000000000001"></circle><circle cx="396" cy="252" r="30" fill="none" stroke="#ddd" opacity="0.03733333333333333" stroke-width="12px"></circle><circle cx="396" cy="252" r="15" fill="#222" fill-opacity="0.13266666666666665"></circle><circle cx="36" cy="324" r="30" fill="none" stroke="#ddd" opacity="0.08933333333333333" stroke-width="12px"></circle><circle cx="36" cy="324" r="15" fill="#ddd" fill-opacity="0.14133333333333334"></circle><circle cx="108" cy="324" r="30" fill="none" stroke="#ddd" opacity="0.10666666666666667" stroke-width="12px"></circle><circle cx="108" cy="324" r="15" fill="#ddd" fill-opacity="0.14133333333333334"></circle><circle cx="180" cy="324" r="30" fill="none" stroke="#ddd" opacity="0.12400000000000001" stroke-width="12px"></circle><circle cx="180" cy="324" r="15" fill="#222" fill-opacity="0.15"></circle><circle cx="252" cy="324" r="30" fill="none" stroke="#222" opacity="0.11533333333333334" stroke-width="12px"></circle><circle cx="252" cy="324" r="15" fill="#ddd" fill-opacity="0.10666666666666667"></circle><circle cx="324" cy="324" r="30" fill="none" stroke="#222" opacity="0.098" stroke-width="12px"></circle><circle cx="324" cy="324" r="15" fill="#ddd" fill-opacity="0.03733333333333333"></circle><circle cx="396" cy="324" r="30" fill="none" stroke="#ddd" opacity="0.03733333333333333" stroke-width="12px"></circle><circle cx="396" cy="324" r="15" fill="#ddd" fill-opacity="0.08933333333333333"></circle><circle cx="36" cy="396" r="30" fill="none" stroke="#222" opacity="0.11533333333333334" stroke-width="12px"></circle><circle cx="36" cy="396" r="15" fill="#222" fill-opacity="0.15"></circle><circle cx="108" cy="396" r="30" fill="none" stroke="#ddd" opacity="0.12400000000000001" stroke-width="12px"></circle><circle cx="108" cy="396" r="15" fill="#ddd" fill-opacity="0.10666666666666667"></circle><circle cx="180" cy="396" r="30" fill="none" stroke="#222" opacity="0.046" stroke-width="12px"></circle><circle cx="180" cy="396" r="15" fill="#ddd" fill-opacity="0.08933333333333333"></circle><circle cx="252" cy="396" r="30" fill="none" stroke="#ddd" opacity="0.14133333333333334" stroke-width="12px"></circle><circle cx="252" cy="396" r="15" fill="#222" fill-opacity="0.06333333333333334"></circle><circle cx="324" cy="396" r="30" fill="none" stroke="#ddd" opacity="0.10666666666666667" stroke-width="12px"></circle><circle cx="324" cy="396" r="15" fill="#ddd" fill-opacity="0.05466666666666667"></circle><circle cx="396" cy="396" r="30" fill="none" stroke="#ddd" opacity="0.07200000000000001" stroke-width="12px"></circle><circle cx="396" cy="396" r="15" fill="#ddd" fill-opacity="0.10666666666666667"></circle></svg>